<svg width="150" height="75" viewBox="0 0 150 75" fill="none" xmlns="http://www.w3.org/2000/svg">
<path d="M5 3L9.5 2H14.5L68.5 2.5H75H86L100 3H116H124.5L130.5 4L135.5 6.5L139 9L140.5 11.5L141.5 13L142 15L142.5 16.5V18L143 22L143.5 24.5L144.5 26.5L146.5 29.5L147.5 31.5L148.5 34L149 37.5L148.5 40L147.5 42.5L146.5 44.5L144.5 46.5L142 48L139.5 50L138 52.5L137.5 56.5L136.5 60L135 63.5L132.5 67L128.5 69.5L124.5 71L119.5 72H115L106 71.5L97 71H88L82 71.5H71L66.5 72H55.5L49 73L41.5 73.5L33.5 74L25.5 73.5L22 72.5L18 72L11 70L5.5 65.5L2.5 60.5L0.5 45.5L0 34.5V24L0.5 15L1.5 7L5 3Z" fill="white"/>
<path d="M86.1462 10.4929C85.2266 9.9827 84.3683 9.66382 83.5713 9.53627C81.916 9.21739 80.8738 9.08984 80.4447 9.08984C79.8929 9.08984 79.3412 9.28117 78.912 9.60005C78.912 9.7276 78.8507 9.85515 78.7281 10.0465C78.6055 10.2378 78.6055 10.3016 78.6055 10.3016C78.912 11.0031 79.5251 11.4495 80.5673 11.6409L80.7512 11.8322C80.9351 14.8934 80.8738 18.3373 80.5673 21.9725L80.4447 22.1638C80.1381 22.3552 79.9542 22.5465 79.7703 22.7378C79.6477 22.8654 79.5864 22.9929 79.5864 23.1842C79.5864 23.5031 79.7703 23.822 80.1994 24.1409L80.3221 24.396C80.1381 25.9266 80.0155 27.9036 79.9542 30.3271L79.8316 36.2582C80.0768 36.7684 80.5673 37.0235 81.1804 37.0235C81.4869 37.0235 81.7321 36.9598 81.9774 36.8322L85.2879 34.7914C86.6367 33.9623 87.6176 33.0695 88.292 32.2404C89.1503 31.1562 89.5794 29.9445 89.5794 28.6052C89.5794 26.947 88.6598 25.4164 86.8206 24.2047C86.5141 24.0771 86.0849 23.8858 85.7171 23.6945C85.2266 23.5031 84.9814 23.1842 84.8588 22.7378L84.9814 22.4827C86.1462 21.6536 87.3111 20.7608 88.5372 19.9317C89.702 18.9113 90.4377 17.7633 90.7442 16.5516C90.8669 15.9776 90.8056 15.2761 90.499 14.3832C90.0086 13.0439 88.5372 11.7684 86.1462 10.4929ZM86.0849 25.9266L86.1462 25.9904C86.6367 26.5644 86.8819 27.2659 86.8819 28.0312C86.8819 28.2863 86.8819 28.5414 86.8206 28.8603C86.6367 29.7531 86.3301 30.5184 85.8397 31.0286C85.5945 31.3475 85.1653 31.6664 84.5522 32.049C84.0005 32.4317 83.5713 32.7506 83.3261 33.0695L82.9583 33.0057C82.7743 32.3679 82.6517 31.6664 82.6517 30.8373C82.6517 30.3271 82.713 29.498 82.8356 28.4776C82.9583 27.4572 83.0196 26.6919 83.0196 26.1817C83.0196 25.9266 83.0196 25.6715 82.9583 25.4164L83.0809 25.1613C83.2648 25.0975 83.4487 25.0337 83.6939 25.0337C84.0005 25.0337 84.4909 25.0975 86.0849 25.9266ZM87.1271 17.2531C86.5754 18.0822 85.901 18.6562 85.2266 19.0388C85.2266 19.0388 85.104 19.1026 84.7362 19.4215C84.3683 19.7404 84.0618 19.8679 83.8779 19.8679L83.6326 19.6128C83.6326 18.8475 83.6326 17.7633 83.5713 16.424C83.51 14.9572 83.4487 13.873 83.4487 13.2353C83.4487 12.7888 83.4487 12.3424 83.51 11.896L83.6326 11.7046C84.0618 11.5133 84.3683 11.5771 84.8588 11.9597C85.2266 12.2148 85.5332 12.3424 85.6558 12.4062C87.0045 12.9164 87.7402 13.6817 87.8628 14.6383C87.9241 15.595 87.6789 16.424 87.1271 17.2531Z" fill="black"/>
<path d="M95.9554 14.0643C95.8941 14.0005 95.8941 13.9367 95.8328 13.8729C95.8328 13.8092 95.7715 13.6816 95.8328 13.299C95.8328 13.299 95.8328 13.299 95.8328 13.2352H95.6489C95.2197 12.9801 94.8519 12.8525 94.4228 12.8525C93.9936 12.8525 93.6871 13.0439 93.5032 13.3627C93.5645 13.9367 93.5645 14.5107 93.5645 15.1485C93.5645 16.7428 93.3805 19.2301 93.0127 22.4189C92.6449 25.6077 92.4609 28.0949 92.4609 29.6893C92.4609 30.6459 92.5222 31.475 92.5836 32.3041C92.6449 32.7505 92.8288 33.3883 93.9936 33.4521H94.0549C94.6067 33.4521 94.9132 33.1969 95.0971 32.6867C95.0971 32.1128 95.0358 31.475 95.0358 30.901C95.0358 29.2429 95.2197 26.6918 95.5263 23.4393C95.8328 20.1867 96.0167 17.6995 96.0167 16.1051C96.0167 15.4036 96.0167 14.702 95.9554 14.0643Z" fill="black"/>
<path d="M109.996 30.7097C109.996 30.5184 109.935 30.4546 109.874 30.3908C108.77 29.4342 107.421 28.4138 105.827 27.3296C104.356 26.4367 102.946 25.5439 101.536 24.651L101.475 24.3321C102.088 23.3117 103.559 21.5898 105.766 19.2301C107.605 17.253 108.831 15.5311 109.506 14.0643C109.445 13.7454 109.261 13.3627 108.341 13.3627C108.096 13.3627 107.789 13.4265 107.605 13.4903C106.624 14.702 105.582 15.9775 104.54 17.1255C103.314 18.5923 102.21 19.8041 101.291 20.6969L100.923 20.5056C100.984 18.5923 100.8 15.9775 100.494 12.7887C100.494 12.6612 100.432 12.4699 100.126 12.3423C99.8193 12.2148 99.5128 12.0872 99.2676 12.0234C98.9611 12.0872 98.7158 12.0872 98.4706 12.151C98.1641 12.2148 98.1641 12.3423 98.1641 12.4699C98.4706 14.3194 98.6545 16.6153 98.6545 19.1025C98.6545 19.9316 98.6545 21.1433 98.5932 22.8653C98.5319 24.5235 98.5319 25.799 98.5319 26.628C98.5319 28.924 98.6545 30.9648 98.9611 32.6867C99.0224 33.1969 99.3289 33.5796 99.8193 33.7709L99.942 33.8985C100.003 33.9622 100.126 34.026 100.248 34.026C100.432 34.026 100.616 33.9622 100.739 33.8985C101.168 33.7071 101.352 33.3883 101.352 32.878C101.352 32.7505 101.352 32.4316 101.291 32.1127C101.229 31.7301 101.229 31.4112 101.229 31.2199C101.168 29.5617 101.107 28.2862 101.045 27.3934L101.413 27.1382C104.663 29.1153 107.054 30.6459 108.586 31.6663C108.709 31.7301 108.77 31.7939 108.831 31.7939C108.893 31.7939 108.954 31.7939 109.199 31.6663C109.506 31.475 109.69 31.4112 109.935 31.475C109.996 30.901 109.996 30.7097 109.996 30.7097Z" fill="black"/>
<path d="M122.929 13.9367C122.991 13.8729 123.052 13.8092 123.052 13.6816C123.052 13.6178 123.052 13.4903 122.929 13.1714C122.868 12.9801 122.807 12.7887 122.807 12.725C122.071 12.2785 121.397 12.0234 120.845 12.0234C120.722 12.0234 120.6 12.0234 120.477 12.0234C119.374 12.2785 118.209 12.5974 117.105 12.9163C115.818 13.299 114.776 13.6816 113.917 14.128L111.71 15.0847C111.036 15.4673 110.668 15.9137 110.668 16.5515C110.668 17.1255 111.22 17.5719 112.385 17.827L112.568 18.0821C112.385 20.8882 112.323 21.3985 112.262 21.526C112.201 21.7811 111.955 22.0362 111.588 22.2275C111.342 22.3551 111.158 22.4826 111.158 22.6102C111.097 22.9291 111.342 23.3117 111.894 23.6944L112.017 23.9495C111.833 25.6076 111.833 27.4571 112.017 29.498C112.078 30.1357 112.385 30.7735 112.875 31.2837C113.365 31.7939 113.917 32.1765 114.53 32.3041C116.553 32.8781 119.006 33.0694 121.703 33.0056C122.01 33.0056 122.194 32.8781 122.378 32.623C122.562 32.3679 122.623 32.049 122.562 31.7301C122.378 30.7097 122.071 30.2633 121.581 30.3908C121.519 30.3908 121.397 30.3908 121.151 30.5821C120.906 30.7735 120.661 30.901 120.416 30.901C120.048 30.901 119.741 30.901 119.374 30.901C117.166 30.901 115.573 30.5184 114.592 29.8168L114.53 29.7531C114.346 29.3066 114.224 28.7326 114.224 27.9673C114.224 26.9469 114.469 25.4801 114.898 23.6944L115.021 23.503C115.695 23.2479 116.615 23.0566 117.718 23.0566C119.006 23.0566 119.864 22.9928 120.354 22.8653H120.416H120.477C120.661 22.8653 120.784 22.8015 120.906 22.674C121.335 22.1638 121.397 22.1638 121.458 22.1C121.581 22.0362 121.581 21.9724 121.581 21.9087C121.581 21.9087 121.519 21.7173 121.151 21.1434C120.722 20.8882 120.232 20.7607 119.68 20.7607C119.374 20.7607 118.822 20.8245 118.086 20.952C117.35 21.0796 116.799 21.1434 116.431 21.1434C115.94 21.1434 115.45 21.0796 115.082 20.8882L114.959 20.6331C115.082 18.401 115.205 17.0617 115.45 16.3602L115.573 16.2326C116.431 15.85 117.718 15.4673 119.374 14.9571C120.845 14.702 122.071 14.3194 122.929 13.9367Z" fill="black"/>
<path d="M88.7211 62.8455C88.8437 62.8455 89.0276 62.7817 89.1503 62.4628C89.2116 62.2715 89.2116 61.9526 89.2116 61.5062C89.1503 60.0394 89.1503 58.5725 89.1503 57.0419C89.1503 53.0878 89.3955 48.0496 89.8246 42.0547L90.0086 41.8633C93.687 41.2256 96.3232 40.7154 97.7945 40.3327C98.285 40.2052 98.5915 39.7587 98.7755 38.9934C98.7755 38.9297 98.7754 38.6108 98.0398 38.6108L97.8558 38.3557C97.8558 38.2919 97.8558 38.2281 97.8558 38.1644C97.8558 38.1644 97.7945 38.1006 97.5493 38.1006C97.3654 38.1006 97.2428 38.1006 97.1202 38.1006C96.691 38.1006 96.1393 38.1644 95.5262 38.3557C94.3614 38.6746 93.687 38.8659 93.3804 38.8659C92.4608 39.121 91.4186 39.2485 90.3764 39.2485C89.3342 39.2485 88.4146 39.121 87.6176 38.8659C86.5754 39.4399 85.104 39.8225 83.1422 40.0139C80.9351 40.2052 79.4638 40.4603 78.7281 40.7154C78.6668 40.8429 78.6055 40.9067 78.6055 41.0343C78.6055 41.098 78.7281 41.2894 78.9733 41.9271C79.6477 42.5011 80.506 42.7562 81.5482 42.7562C82.0387 42.7562 82.897 42.6286 84.1231 42.5011C84.9814 42.3735 85.7171 42.3098 86.3301 42.3098C86.5141 42.3098 86.6367 42.3098 86.8206 42.3098L87.0045 42.5649C87.0045 44.2868 86.9432 46.8378 86.698 50.0904C86.5141 53.4705 86.3914 56.0215 86.3914 57.6159C86.3914 58.5725 86.3914 59.5292 86.4528 60.422C86.5141 61.0598 86.698 61.6338 87.1271 62.144C87.5563 62.5904 88.0467 62.8455 88.7211 62.8455V63.1006V62.8455Z" fill="black"/>
<path d="M106.685 59.8483C105.459 56.1493 104.232 51.4299 103.068 45.8176C102.945 44.7972 102.822 43.8406 102.7 42.8202C102.516 41.736 102.148 40.9069 101.535 40.3967C101.351 40.2054 101.106 40.1416 100.799 40.1416C100.37 40.1416 100.186 40.3329 100.125 40.5242C99.5118 41.9911 98.8375 44.2232 98.1018 47.0294C97.1822 50.2819 96.5691 52.5141 96.14 53.7258C96.0787 53.9809 95.8334 54.1722 95.343 54.236C94.9138 54.3636 94.7912 54.4273 94.7299 54.4911C94.6686 54.5549 94.6073 54.6824 94.6073 54.7462C94.6073 54.7462 94.6073 54.8738 94.9751 55.1926C95.343 55.5115 95.5269 55.8304 95.5269 56.1493C95.4656 56.9146 95.0977 58.1901 94.3621 59.9758C93.8103 61.4427 93.5651 62.6544 93.6264 63.5473C93.6877 63.8661 93.9942 64.185 94.6686 64.4401C95.0977 64.5677 95.4043 64.5039 95.5882 64.185C95.956 63.2922 96.3239 61.9529 96.6917 60.2309C97.1209 58.3177 97.4274 56.9784 97.6726 56.2768L97.7339 56.1493C98.2857 55.6391 99.0214 55.384 99.941 55.2564L102.332 55.0651L102.577 55.1926C103.006 56.4044 103.435 57.9988 103.742 59.7845C104.049 61.3789 104.662 62.208 105.704 62.4631C105.704 62.4631 105.826 62.4631 106.317 62.0166C106.685 61.6978 106.807 61.3789 106.807 60.9325C106.869 60.5498 106.807 60.2309 106.685 59.8483ZM101.842 53.1518C100.309 53.1518 99.3279 53.2156 98.9601 53.2794L98.7149 52.9605C99.2053 50.9835 99.8184 48.9426 100.493 46.9656H100.922C101.106 47.9222 101.351 48.8789 101.596 49.8355C101.842 50.9835 101.964 51.9401 102.025 52.8329L101.842 53.1518Z" fill="black"/>
<path d="M119.557 50.2819C119.25 50.2819 119.005 50.3456 118.943 50.3456C118.453 50.3456 118.085 50.6007 117.901 51.1747C117.472 52.4502 117.227 52.7691 117.043 52.9604C113.978 55.639 111.648 57.2972 110.115 57.9349C110.054 57.9349 109.993 57.9987 109.931 57.9987C109.809 57.9987 109.625 57.9349 109.441 57.616C109.38 57.4247 109.318 57.3609 109.318 57.3609L109.196 57.1696C109.196 56.8507 109.134 56.5319 109.134 56.213C109.134 54.4273 109.625 52.4502 110.667 50.2181C112.261 46.7104 114.1 43.7767 116.062 41.5446C116.123 41.4808 116.185 41.417 117.411 40.7155C117.779 40.5242 117.963 40.1415 117.901 39.6951C117.84 39.3125 117.656 38.8022 116.552 38.8022C115.572 38.8022 114.468 39.6951 113.181 41.4808C110.544 45.1798 108.583 49.0063 107.356 52.8329C106.989 54.0446 106.805 55.065 106.805 55.9579C106.805 56.9145 107.05 57.7436 107.54 58.3814C108.583 59.8482 109.809 60.4222 111.035 60.0395C112.997 59.2742 114.775 58.1263 116.369 56.5956L116.736 56.787C116.614 58.19 116.491 59.2104 116.369 59.912C116.369 60.2308 116.307 60.6773 116.246 61.3788C116.185 62.0166 116.123 62.5268 116.123 62.8456C116.123 63.9298 116.552 64.6314 117.472 65.014C117.595 65.0778 117.779 65.0778 117.963 65.0778C118.698 65.0778 118.821 64.6951 118.882 64.3763C118.943 62.3354 119.066 60.2946 119.189 58.2538C119.373 55.8941 119.802 53.8533 120.415 52.2589C120.476 52.0676 120.537 51.8762 120.537 51.6849C120.537 51.3023 120.354 50.7921 119.924 50.1543C119.863 50.2181 119.74 50.2181 119.557 50.2819Z" fill="black"/>
<path d="M135.047 64.678C131.553 70.0928 123.567 70.8468 117.578 71.1895C111.303 71.5322 105.1 70.9153 98.8251 70.5041C88.4149 69.7501 77.9335 70.0928 67.5946 70.5041C56.614 70.9153 45.8473 70.5726 34.9381 69.8187C29.9469 69.4759 25.027 69.1332 20.0358 68.9276C16.3281 68.7905 12.6917 68.1051 9.41176 66.4601C1.35458 62.3475 1.78239 52.8887 1.8537 45.4175C1.925 37.261 2.85193 29.1729 2.92323 20.9478C2.92323 15.7386 2.1389 6.00557 6.98747 2.44136C7.34399 2.16719 6.98747 1.20759 6.55966 1.55031C2.42411 4.56618 2.49542 11.6946 2.28151 16.1499C1.925 24.1008 1.49718 31.9832 1.21197 39.8656C0.926764 47.1996 -0.142773 55.7674 3.85017 62.4161C6.77357 67.3511 12.6204 69.2703 18.182 69.8187C23.3157 70.367 28.5208 70.367 33.6546 70.7097C39.5727 71.121 45.4195 71.5322 51.3376 71.7378C62.6747 72.1491 74.0118 71.121 85.3489 71.121C93.8339 71.121 102.319 72.012 110.804 72.2862C117.364 72.4918 124.423 72.2862 130.483 69.6816C132.622 68.7905 134.405 67.3511 135.617 65.4319C135.831 65.0892 135.332 64.2667 135.047 64.678Z" fill="black"/>
<path d="M3.28141 5.52588C3.56662 5.52588 3.92314 5.52588 4.20835 5.52588C4.70746 5.52588 4.92137 5.04608 4.92137 4.63483C4.92137 4.22357 4.56486 3.53815 4.06574 3.53815C3.78053 3.53815 3.42402 3.53815 3.13881 3.53815C2.63969 3.53815 2.42578 4.01795 2.42578 4.4292C2.42578 4.84046 2.71099 5.52588 3.28141 5.52588Z" fill="black"/>
<path d="M3.35142 7.51324C10.0539 2.16693 18.0397 2.85235 26.2395 2.50964C36.2219 2.09838 46.2042 1.75567 56.2579 1.96129C66.3115 2.16692 76.3652 2.57818 86.4188 2.57818C96.9003 2.57818 107.31 4.08611 117.721 4.2232C124.566 4.29174 134.192 1.48149 138.47 8.40429C141.037 12.5168 139.824 17.1777 140.823 21.5645C141.607 24.9916 143.603 27.8018 145.386 30.8177C147.739 34.7246 150.163 39.317 148.238 43.8408C146.812 47.1994 142.89 48.8444 140.11 50.9007C138.113 52.34 137.329 54.4649 136.687 56.7268C136.045 59.1258 136.117 64.335 132.623 64.6092C132.052 64.6777 132.48 66.6654 133.193 66.5969C135.546 66.4598 136.402 63.8552 136.901 61.936C137.757 58.5774 137.899 55.1503 140.894 52.8198C143.532 50.695 147.097 49.3927 148.737 46.3083C150.235 43.6351 150.235 40.8934 149.593 38.0147C148.88 34.7932 147.026 31.7087 145.315 28.8985C143.532 25.8141 141.75 23.2095 141.536 19.5082C141.393 17.3148 141.536 15.0529 141.037 12.9281C139.611 7.30761 136.972 2.7838 130.555 1.96129C126.633 1.48149 122.498 2.23546 118.576 2.304C112.302 2.37255 105.956 1.75566 99.6811 1.27587C88.7005 0.453356 77.6486 0.590446 66.5968 0.316276C55.1883 0.0421068 43.8512 -0.232063 32.4428 0.316278C27.1665 0.590448 21.8901 0.796076 16.6137 1.0017C12.4781 1.13879 8.6991 1.75567 5.20528 3.88049C4.27835 4.42883 3.42272 5.11426 2.56709 5.79968C2.06797 6.07385 2.781 7.99304 3.35142 7.51324Z" fill="black"/>
<path d="M138.255 33.2169C138.184 36.2327 137.4 39.6599 138.826 42.5387C139.396 43.7039 140.822 44.3893 142.106 43.9781C143.46 43.4983 143.817 41.5791 144.031 40.4138C144.601 37.6036 144.601 33.9023 142.177 31.9146C138.826 29.2414 137.756 35.89 137.542 37.5351C137.471 38.3576 138.612 39.6599 138.754 38.289C138.968 36.7125 139.396 32.2573 142.106 33.7652C143.817 34.7248 143.033 38.4261 142.747 39.934C142.533 41.0307 142.034 42.1959 140.68 42.0589C139.182 41.9218 139.325 40.0711 139.325 39.043C139.254 37.3294 139.539 35.6159 139.539 33.9023C139.539 33.1483 138.327 31.846 138.255 33.2169Z" fill="black"/>
<path d="M23.1032 71.6691C14.333 71.8747 6.41842 68.3105 3.49502 59.8798C1.92637 55.2189 1.99767 49.804 1.49855 44.9375C0.928129 38.7687 0.500314 32.5999 0.642919 26.431C0.785524 22.3185 1.28464 18.2059 1.42725 14.0934C1.64115 9.15832 2.28288 4.56597 7.77317 2.92095C11.5522 1.82427 15.9017 2.57824 19.752 2.57824C25.6701 2.57824 31.5882 2.71532 37.5063 2.85241C48.7721 3.05803 60.0379 2.64678 71.3037 2.71532C82.3556 2.78386 93.4075 3.812 104.459 3.74346C114.228 3.67492 125.137 2.16698 134.406 5.93682C139.825 8.13018 142.606 13.6136 142.891 18.9599C143.105 22.8668 143.533 25.54 145.957 28.83C148.596 32.3942 149.665 36.6439 148.453 40.8935C147.312 44.869 143.604 46.4454 140.61 48.7759C138.97 50.0782 138.328 51.7918 137.972 53.711C137.259 57.3437 136.973 60.3596 134.977 63.6496C128.916 73.6568 115.226 71.6006 105.244 70.9151C97.543 70.3668 89.7711 70.7095 82.0704 70.9837C74.7262 71.1893 67.4534 71.0522 60.1805 71.4635C52.3372 71.8747 44.494 73.3141 36.6507 73.5198C29.7343 73.7254 23.0319 71.8062 16.1869 72.8343C15.6878 72.8343 15.973 73.8625 16.4008 73.7939C21.8911 72.9714 27.3814 73.931 32.8717 74.3423C38.148 74.7535 43.4244 73.8625 48.7008 73.3827C60.2518 72.2174 71.8741 72.286 83.4964 71.8747C88.9867 71.6691 94.4057 71.532 99.896 71.6006C104.887 71.6691 109.878 72.3545 114.87 72.5602C121.287 72.7658 127.989 71.8062 132.838 67.488C135.048 65.5003 136.474 62.8271 137.472 60.154C138.114 58.4404 138.399 56.7954 138.542 55.0133C138.827 50.9693 141.323 49.3242 144.389 47.3365C150.236 43.5667 151.376 35.2045 147.526 29.6525C145.815 27.185 144.104 25.1287 143.747 22.0443C143.533 20.2622 143.818 18.4801 143.462 16.698C142.82 13.2709 141.323 10.3235 138.827 7.78746C132.98 1.68718 121.643 2.37261 113.8 2.44115C94.1918 2.71532 74.6549 1.48155 55.118 1.82427C44.7079 1.96135 34.2977 1.61864 23.8162 1.48156C17.6842 1.41301 8.7714 -0.300548 3.63762 3.812C-0.42662 7.10205 0.928128 14.9159 0.500313 19.3712C-0.497921 29.2413 0.215104 38.9743 1.21334 48.7759C1.85506 55.0133 1.99767 61.799 6.63233 66.6655C10.9818 71.1893 16.9712 72.7658 23.1745 72.6287C23.7449 72.6287 23.531 71.6006 23.1032 71.6691Z" fill="black"/>
<path d="M66.3665 31.8333C66.3665 17.4283 54.5231 5.74414 39.9216 5.74414C25.32 5.74414 13.4766 17.4283 13.4766 31.8333C13.4766 45.278 23.7788 56.3219 37.0824 57.7624C38.867 60.8035 39.4348 64.3248 40.7328 67.6059C40.8139 67.846 41.3006 67.6859 41.3006 67.5259C42.3551 64.3248 42.4363 60.8035 43.6531 57.6824C56.5511 55.8418 66.3665 44.9579 66.3665 31.8333ZM41.0572 66.5655C40.0027 63.6045 39.4348 60.5634 37.8936 57.8425C38.6236 57.9225 39.2726 57.9225 40.0027 57.9225C41.0572 57.9225 42.1118 57.8425 43.1663 57.7624C42.0307 60.5634 41.7873 63.6045 41.0572 66.5655ZM39.9216 56.562C26.0501 56.562 14.8556 45.4381 14.8556 31.8333C14.8556 18.2285 26.1312 7.10462 39.9216 7.10462C53.793 7.10462 64.9875 18.2285 64.9875 31.8333C64.9875 45.4381 53.793 56.562 39.9216 56.562Z" fill="black"/>
<path d="M39.9209 7.74512C26.4551 7.74512 15.5039 18.5489 15.5039 31.8336C15.5039 45.1183 26.4551 55.9221 39.9209 55.9221C53.3868 55.9221 64.3379 45.1183 64.3379 31.8336C64.3379 18.5489 53.3868 7.74512 39.9209 7.74512ZM39.9209 55.1218C26.8607 55.1218 16.3151 44.7181 16.3151 31.8336C16.3151 18.9491 26.8607 8.5454 39.9209 8.5454C52.9812 8.5454 63.5267 18.9491 63.5267 31.8336C63.5267 44.7181 52.9812 55.1218 39.9209 55.1218Z" fill="black"/>
<path d="M39.9214 7.10449C26.05 7.10449 14.8555 18.2284 14.8555 31.8332C14.8555 45.438 26.1311 56.5619 39.9214 56.5619C53.7929 56.5619 64.9874 45.438 64.9874 31.8332C64.9874 18.2284 53.7929 7.10449 39.9214 7.10449ZM39.9214 55.9217C26.4556 55.9217 15.5044 45.1179 15.5044 31.8332C15.5044 18.5485 26.4556 7.74472 39.9214 7.74472C53.3873 7.74472 64.3384 18.5485 64.3384 31.8332C64.3384 45.1179 53.3873 55.9217 39.9214 55.9217Z" fill="white"/>
<path d="M39.9206 28.6318C38.1359 28.6318 36.6758 30.0723 36.6758 31.833C36.6758 33.5936 38.1359 35.0341 39.9206 35.0341C41.7052 35.0341 43.1653 33.5936 43.1653 31.833C43.1653 30.0723 41.7052 28.6318 39.9206 28.6318ZM39.9206 33.9137C38.7849 33.9137 37.8115 32.9534 37.8115 31.833C37.8115 30.7126 38.7849 29.7522 39.9206 29.7522C41.0562 29.7522 42.0297 30.7126 42.0297 31.833C42.0297 32.9534 41.1374 33.9137 39.9206 33.9137Z" fill="black"/>
<path d="M39.9216 29.7524C38.7859 29.7524 37.8125 30.7128 37.8125 31.8332C37.8125 32.9536 38.7859 33.9139 39.9216 33.9139C41.0573 33.9139 42.0307 32.9536 42.0307 31.8332C42.0307 30.7128 41.1384 29.7524 39.9216 29.7524ZM39.9216 32.6335C39.516 32.6335 39.1104 32.3133 39.1104 31.8332C39.1104 31.433 39.4349 31.0329 39.9216 31.0329C40.3272 31.0329 40.7328 31.353 40.7328 31.8332C40.7328 32.2333 40.4083 32.6335 39.9216 32.6335Z" fill="white"/>
<path d="M39.9206 31.0332C39.515 31.0332 39.1094 31.3533 39.1094 31.8335C39.1094 32.2336 39.4339 32.6338 39.9206 32.6338C40.3262 32.6338 40.7318 32.3137 40.7318 31.8335C40.7318 31.3533 40.4073 31.0332 39.9206 31.0332Z" fill="black"/>
<path d="M37.6484 57.1221H43.4891L41.0555 66.5654L37.6484 57.1221Z" fill="black"/>
<path d="M33.8372 9.18574C33.7561 15.4279 37.5687 22.3104 40.489 27.6722C44.7884 35.515 49.6555 43.1977 53.2248 51.3606C53.3059 51.6007 53.9549 51.4406 53.7926 51.2005C50.7912 44.2381 46.8163 37.8358 43.166 31.2735C41.138 27.5922 38.9477 23.991 37.4876 20.1496C36.1897 16.8684 34.405 12.707 34.4862 9.18574C34.405 8.86563 33.8372 8.94566 33.8372 9.18574Z" fill="black"/>
<path d="M26.6993 11.7464C27.5105 15.0276 29.5385 17.8285 30.9175 20.9496C32.3777 24.3909 33.5134 27.9121 35.1358 31.1933C37.1637 35.2747 39.7596 39.036 41.7876 43.1175C43.5722 46.7187 44.7079 50.48 46.0869 54.2414C46.168 54.4815 46.7359 54.3214 46.6547 54.0813C44.2211 47.1989 41.382 40.9567 37.6505 34.5544C35.298 30.553 33.5945 26.3916 31.9721 22.07C30.6742 18.4688 28.2406 15.2676 27.2672 11.5063C27.186 11.3463 26.6182 11.5063 26.6993 11.7464Z" fill="black"/>
<path d="M58.3358 17.9888C55.2533 19.8294 51.7651 20.8698 48.6014 22.5504C45.3567 24.231 42.3552 26.5518 39.1916 28.3924C35.4601 30.4732 31.6474 32.3138 27.6726 33.9144C24.0222 35.4349 20.5341 37.5957 16.6403 38.6361C16.3158 38.7161 16.3158 38.9562 16.7214 38.8761C20.2096 37.9158 23.2921 35.9951 26.618 34.6346C30.1873 33.1141 33.6754 31.6736 37.0825 29.913C40.4084 28.1524 43.572 26.2317 46.7357 24.0709C50.4672 21.59 54.8477 20.3896 58.7414 18.1488C59.0659 17.9088 58.498 17.9088 58.3358 17.9888Z" fill="black"/>
<path d="M62.4741 23.7506C55.1733 26.8717 47.9537 30.1528 40.734 33.514C33.7577 36.7151 26.8626 40.5565 19.8052 43.4375C19.3996 43.5975 19.8052 43.8376 20.0485 43.7576C26.7003 41.0366 33.0277 37.5154 39.5984 34.5544C47.3047 31.0331 55.0111 27.5119 62.7986 24.1507C63.1231 23.9106 62.7986 23.6705 62.4741 23.7506Z" fill="black"/>
<path d="M42.8406 8.62553C41.7049 16.1482 37.6489 22.6305 36.351 29.9931C34.972 37.5957 31.9706 44.8783 29.6992 52.2409C29.6992 52.3209 30.2671 52.2409 30.2671 52.1608C32.6195 44.7983 35.6209 37.5157 36.9189 29.913C38.1357 22.5504 42.3539 15.9881 43.4896 8.46548C43.4084 8.38545 42.8406 8.46548 42.8406 8.62553Z" fill="black"/>
<path d="M47.8711 9.98623C47.7088 11.5868 46.9788 12.7872 46.6543 14.3078C46.1676 16.7886 45.6808 19.2695 45.113 21.6703C44.1396 26.0719 42.9228 30.4734 41.8682 34.875C40.8948 39.2765 39.7591 43.5981 38.3801 47.9196C37.65 50.1604 37.1633 52.8813 35.7031 54.722C35.7031 54.722 36.1898 54.722 36.271 54.642C37.7311 52.7213 38.1367 50.0003 38.9479 47.8396C40.4892 43.5981 41.4626 39.1965 42.4361 34.795C43.4906 30.3934 44.5452 25.9919 45.6808 21.5903C46.6543 17.749 48.0333 13.6675 48.4389 9.82617C48.52 9.82617 47.9522 9.82617 47.8711 9.98623Z" fill="black"/>
<path d="M63.2849 34.6346C59.2289 35.1148 55.0918 32.874 51.2792 31.6736C47.5477 30.5532 43.6539 29.4328 39.8413 28.4725C35.9476 27.4321 31.8916 27.192 27.9978 26.3917C24.2663 25.6715 21.0215 23.6708 17.29 23.0305C17.0467 22.9505 16.7222 23.3507 17.0467 23.4307C21.2649 24.1509 24.9964 26.2317 29.1335 27.112C33.5951 27.9923 37.9755 28.3924 42.356 29.6729C46.5742 30.9533 50.7925 31.9937 54.9296 33.3542C57.7687 34.3145 60.2023 35.4349 63.2849 35.0348C63.5282 34.9547 63.6905 34.5546 63.2849 34.6346Z" fill="black"/>
<path d="M16.3163 28.0725C24.0227 30.6334 31.4857 33.1143 39.5165 34.3947C43.9781 35.115 48.3586 35.275 52.5768 37.0357C55.7405 38.3961 58.6608 39.9167 62.0678 40.0767C62.3112 40.0767 62.7168 39.7566 62.3112 39.7566C58.1741 39.5966 54.6048 37.2757 50.8733 35.8352C47.8719 34.7148 44.3837 34.5548 41.3012 34.1546C32.7836 33.1143 24.8339 30.3133 16.803 27.6724C16.5597 27.7524 16.073 27.9925 16.3163 28.0725Z" fill="black"/>
<path d="M22.3997 15.2681C28.1592 20.79 34.6487 25.3516 41.0572 30.0733C47.3034 34.7149 54.523 38.7163 60.1203 44.0782C60.2014 44.1583 60.7693 43.9982 60.6881 43.9182C55.0909 38.4763 47.8712 34.5549 41.625 29.9132C35.2166 25.1116 28.8081 20.55 22.9675 15.108C22.8053 14.948 22.3186 15.1881 22.3997 15.2681Z" fill="black"/>
<path d="M19.5598 19.2692C21.5878 21.7501 24.9948 23.6707 27.5095 25.6714C30.7543 28.3124 34.648 30.4731 38.0551 32.7939C41.7054 35.2748 45.2747 37.7557 48.6817 40.5567C51.6832 43.0375 53.9545 46.4788 57.2804 48.3994C57.4426 48.4795 57.9294 48.2394 57.8482 48.1593C54.5223 46.3187 52.0888 42.8775 49.2496 40.3166C46.0048 37.4356 42.2733 35.0347 38.6229 32.5539C35.0536 30.153 31.5655 27.8322 28.0774 25.4314C26.6983 24.471 25.5626 23.1906 24.2647 22.1502C22.8857 21.0298 21.3444 20.3896 20.2087 19.0291C19.9654 18.9491 19.4787 19.1091 19.5598 19.2692Z" fill="black"/>
<path d="M50.6278 11.9069C50.3844 14.1477 47.0585 16.4685 45.6795 18.0691C42.8403 21.2702 40.8934 25.3516 38.1353 28.7928C35.1339 32.5542 32.2136 36.4755 29.0499 40.1568C26.6975 42.8778 23.4527 44.8785 21.6681 47.9996C21.5869 48.0796 22.1548 48.0796 22.2359 47.9196C24.4261 44.1583 28.6444 41.3573 31.4835 37.9961C34.5661 34.3148 37.4053 30.3934 40.4878 26.6321C42.9214 23.591 44.5438 19.9897 47.1396 17.1087C48.3564 15.7482 50.9522 13.9076 51.1956 11.9069C51.2767 11.6668 50.7089 11.7468 50.6278 11.9069Z" fill="black"/>
<path d="M56.1469 15.6681C53.7944 18.4691 51.7664 21.5902 49.5762 24.4712C47.3048 27.5123 44.6279 30.2332 42.3565 33.1943C40.0852 36.0753 37.3271 38.5562 34.8124 41.2771C31.8921 44.4782 29.8641 48.3196 27.0249 51.6007C26.8627 51.7608 27.4305 51.6808 27.5928 51.6007C30.1075 48.6397 32.0544 45.3586 34.4879 42.3175C36.7593 39.4365 39.5985 37.0356 42.0321 34.3147C47.386 28.3926 51.6042 21.6702 56.7147 15.6681C56.877 15.508 56.3091 15.5881 56.1469 15.6681Z" fill="black"/>
<path d="M63.1229 26.3116C62.0684 25.6713 59.3914 26.4716 58.2557 26.6317C54.6053 27.1919 51.0361 27.9121 47.3857 28.4723C41.3017 29.5927 35.1366 30.7931 28.9715 31.2733C24.6722 31.5934 20.3729 30.8732 16.3169 32.5538C15.9113 32.7138 16.3169 32.8739 16.5602 32.7138C21.2652 30.7931 26.9436 31.8335 31.973 31.2733C36.8402 30.7931 41.6262 29.6727 46.4123 28.9525C49.0081 28.5524 51.5228 28.0722 54.1186 27.592C55.741 27.2719 61.0949 25.5913 62.6362 26.4716C62.7173 26.6317 63.204 26.3916 63.1229 26.3116Z" fill="black"/>
<path d="M63.3651 32.2339C59.6336 33.3543 55.4154 32.7141 51.5217 33.1142C47.1412 33.5144 42.8419 33.9145 38.5425 34.1546C31.0795 34.6348 23.292 35.5951 16.1535 37.5958C16.0724 37.5958 15.9102 37.6758 15.9102 37.7559C15.9102 37.8359 15.9102 37.8359 15.9102 37.9159C15.9102 38.156 16.478 38.076 16.478 37.8359C16.5591 37.2757 26.7802 35.8352 26.8613 35.8352C31.1606 35.195 35.46 34.7148 39.8404 34.4747C44.2209 34.2346 48.5202 33.7545 52.9007 33.3543C56.47 33.0342 60.0392 33.5944 63.4462 32.554C63.7707 32.474 63.6896 32.1539 63.3651 32.2339Z" fill="black"/>
</svg>
